<svg id="Capa_1" enable-background="new 0 0 512 512" height="512" viewBox="0 0 512 512" width="512" xmlns="http://www.w3.org/2000/svg"><g><path d="m512 180.75h-105.417l-50.317-150.952c-5.941-17.823-22.556-29.798-41.343-29.798-14.177 0-27.063 6.596-35.353 18.098-8.29 11.501-10.473 25.812-5.99 39.263l41.13 123.39h-117.421l41.13-123.39c4.483-13.45 2.3-27.761-5.99-39.262-8.289-11.503-21.175-18.099-35.352-18.099-18.787 0-35.402 11.975-41.343 29.798l-50.318 150.952h-105.416v90.25h21.2l20.125 241h429.35l20.125-241h21.2zm-209.958-132.876c-1.397-4.191-.717-8.65 1.866-12.234s6.598-5.64 11.015-5.64c5.854 0 11.031 3.731 12.882 9.285l47.155 141.465h-28.627zm-117.848-8.589c1.852-5.554 7.029-9.285 12.883-9.285 4.417 0 8.433 2.055 11.016 5.639s3.263 8.043 1.866 12.234l-44.292 132.877h-28.627zm-154.194 171.465h452v30.25h-452zm413.075 271.25h-374.15l-17.62-211h409.39z"/><path d="m195.75 391.5h120.5c24.882 0 45.125-20.243 45.125-45.125s-20.243-45.125-45.125-45.125h-120.5c-24.882 0-45.125 20.243-45.125 45.125s20.243 45.125 45.125 45.125zm0-60.25h120.5c8.34 0 15.125 6.785 15.125 15.125s-6.785 15.125-15.125 15.125h-120.5c-8.34 0-15.125-6.785-15.125-15.125s6.785-15.125 15.125-15.125z"/></g></svg>